<?xml version="1.0" encoding="UTF-8" standalone="no"?>
<svg
   xmlns:dc="http://purl.org/dc/elements/1.1/"
   xmlns:cc="http://creativecommons.org/ns#"
   xmlns:rdf="http://www.w3.org/1999/02/22-rdf-syntax-ns#"
   xmlns:svg="http://www.w3.org/2000/svg"
   xmlns="http://www.w3.org/2000/svg"
   xmlns:xlink="http://www.w3.org/1999/xlink"
   xmlns:sodipodi="http://sodipodi.sourceforge.net/DTD/sodipodi-0.dtd"
   xmlns:inkscape="http://www.inkscape.org/namespaces/inkscape"
   inkscape:export-ydpi="45"
   inkscape:export-xdpi="45"
   inkscape:export-filename="C:\_dev\pipeline\src\pipeline\modules\pipeicon\icons\ICON_COMETPIPE_LRG.png"
   inkscape:version="1.0 (4035a4fb49, 2020-05-01)"
   sodipodi:docname="ICON_PIPE.svg"
   id="svg8"
   version="1.1"
   class="svg-inline--fa fa-meteor fa-w-16 fa-7x"
   viewBox="0 0 512 512"
   role="img"
   data-icon="meteor"
   data-prefix="fad"
   focusable="false"
   aria-hidden="true">
  <metadata
     id="metadata14">
    <rdf:RDF>
      <cc:Work
         rdf:about="">
        <dc:format>image/svg+xml</dc:format>
        <dc:type
           rdf:resource="http://purl.org/dc/dcmitype/StillImage" />
        <dc:title></dc:title>
      </cc:Work>
    </rdf:RDF>
  </metadata>
  <defs
     id="defs12">
    <linearGradient
       inkscape:collect="always"
       id="linearGradient885">
      <stop
         style="stop-color:#ff6700;stop-opacity:1;"
         offset="0"
         id="stop889" />
      <stop
         style="stop-color:#bd2bd4;stop-opacity:1"
         offset="1"
         id="stop891" />
    </linearGradient>
    <linearGradient
       gradientUnits="userSpaceOnUse"
       y2="-0.48089793"
       x2="514.53613"
       y1="299.10361"
       x1="198.33549"
       id="linearGradient887"
       xlink:href="#linearGradient885"
       inkscape:collect="always" />
  </defs>
  <sodipodi:namedview
     inkscape:current-layer="g6"
     inkscape:window-maximized="1"
     inkscape:window-y="-8"
     inkscape:window-x="-8"
     inkscape:cy="284.39135"
     inkscape:cx="175.56908"
     inkscape:zoom="2"
     showgrid="false"
     id="namedview10"
     inkscape:window-height="1377"
     inkscape:window-width="2560"
     inkscape:pageshadow="2"
     inkscape:pageopacity="0"
     guidetolerance="10"
     gridtolerance="10"
     objecttolerance="10"
     borderopacity="1"
     bordercolor="#666666"
     pagecolor="#ffffff" />
  <g
     id="g6"
     class="fa-group">
    <path
       style="fill:url(#linearGradient887);fill-opacity:1"
       id="path2"
       class="fa-secondary"
       d="M491.12794.70921c-38.6972,11.5936-111.77976,34.29644-187.67439,61.2961-2.09343-6.99991-3.99939-13.49983-5.5929-18.59351a16.058,16.058,0,0,0-22.90274-9.49988c-42.39976,22.09347-152.77349,82.59271-214.37343,142.4982-1.09359,1-2.49962,2-3.49947,3A194.83045,194.83045,0,1,0,332.6522,454.90662c.99985-1,1.9997-2.40622,2.99954-3.49995,59.78772-61.6086,120.3722-172.10721,142.47819-214.40356a16.06158,16.06158,0,0,0-9.49854-22.906c-5.20233-1.59373-11.6076-3.5-18.60653-5.59368,26.99587-75.999,49.69552-148.99813,61.30311-187.70077A16.18325,16.18325,0,0,0,491.12794.70921ZM191.97061,448.00046A127.99839,127.99839,0,1,1,319.951,320.00207,127.97573,127.97573,0,0,1,191.97061,448.00046Z"
       fill="currentColor" />
    <path
       id="path4"
       d="M 191.97089,190.00368 A 129.99839,129.99839 0 1 0 321.951,320.00207 129.97538,129.97538 0 0 0 191.97089,190.00368 Z"
       style="fill:#943a3a;fill-opacity:1;stroke-width:1.01563" />
    <path
       d="m 159.97551,320.00207 a 31.9996,31.9996 0 1 1 31.9951,-31.9996 31.959,31.959 0 0 1 -31.9951,31.9996 z m 47.99265,63.9992 a 15.9998,15.9998 0 1 1 15.99755,-15.9998 16.04976,16.04976 0 0 1 -15.99755,15.9998 z"
       style="fill:#2e2e2e;fill-opacity:1"
       id="path896" />
  </g>
</svg>
