<?xml version="1.0" encoding="UTF-8" standalone="no"?>
<svg
   xmlns:dc="http://purl.org/dc/elements/1.1/"
   xmlns:cc="http://creativecommons.org/ns#"
   xmlns:rdf="http://www.w3.org/1999/02/22-rdf-syntax-ns#"
   xmlns:svg="http://www.w3.org/2000/svg"
   xmlns="http://www.w3.org/2000/svg"
   xmlns:sodipodi="http://sodipodi.sourceforge.net/DTD/sodipodi-0.dtd"
   xmlns:inkscape="http://www.inkscape.org/namespaces/inkscape"
   version="1.0"
   width="512"
   height="512"
   viewBox="0 0 511.99999 512"
   preserveAspectRatio="xMidYMid meet"
   id="svg1589"
   sodipodi:docname="alembic.svg"
   inkscape:version="0.92.5 (2060ec1f9f, 2020-04-08)"
   inkscape:export-filename="/home/mhamid/_dev/CometPipeline/src/cometpipeline/modules/pipeicon/icons/ICON_ALEMBIC2_LRG.png"
   inkscape:export-xdpi="24"
   inkscape:export-ydpi="24">
  <defs
     id="defs1593" />
  <sodipodi:namedview
     pagecolor="#ffffff"
     bordercolor="#666666"
     borderopacity="1"
     objecttolerance="10"
     gridtolerance="10"
     guidetolerance="10"
     inkscape:pageopacity="0"
     inkscape:pageshadow="2"
     inkscape:window-width="2560"
     inkscape:window-height="1326"
     id="namedview1591"
     showgrid="false"
     inkscape:zoom="1.2540097"
     inkscape:cx="245.35872"
     inkscape:cy="201.15063"
     inkscape:window-x="0"
     inkscape:window-y="27"
     inkscape:window-maximized="1"
     inkscape:current-layer="svg1589"
     units="px" />
  <metadata
     id="metadata1569">
Created by potrace 1.16, written by Peter Selinger 2001-2019
<rdf:RDF>
  <cc:Work
     rdf:about="">
    <dc:format>image/svg+xml</dc:format>
    <dc:type
       rdf:resource="http://purl.org/dc/dcmitype/StillImage" />
    <dc:title></dc:title>
  </cc:Work>
</rdf:RDF>
</metadata>
  <path
     inkscape:connector-curvature="0"
     style="fill:#a6a6a6;fill-opacity:1;stroke:none;stroke-width:0.14598672"
     id="path1571"
     d="M 217.51167,2.1095325 C 151.2337,11.160724 94.8827,47.803424 69.626961,98.314876 61.305724,114.8114 57.948023,131.89185 57.948023,156.70959 c 0.145965,50.65761 22.190006,87.44613 66.131997,110.80397 26.71557,14.30682 59.85456,21.75207 82.77459,18.54037 21.31407,-2.77371 36.4968,-9.63509 65.98618,-29.34339 29.63523,-19.85421 52.70107,-27.73728 81.3145,-27.73728 29.19741,0 49.48963,7.73718 66.86208,25.40165 15.03665,15.32853 21.60608,30.21925 23.50382,53.43107 2.33586,31.53315 -13.72273,65.25618 -37.81049,79.41692 -29.92742,17.66439 -73.13955,12.84676 -94.45348,-10.21909 -15.18279,-16.78848 -16.78855,-40.29229 -3.94166,-61.75236 8.46713,-14.01474 21.02199,-22.0442 36.20476,-23.21199 13.13884,-0.87597 23.21184,2.48176 31.38718,10.65698 9.34305,9.48919 10.36496,20.73015 2.62769,29.78128 -5.54739,6.56948 -15.03662,8.02947 -28.6135,4.67168 -5.83946,-1.6058 -10.94889,-2.48174 -11.24089,-2.18974 -0.43798,0.29193 2.33566,3.50364 5.98553,7.00725 7.88319,7.44538 17.37226,11.09501 29.19725,11.09501 10.21913,0 17.6644,-2.77363 24.23382,-9.19722 8.3213,-7.88308 9.78114,-11.82473 9.63526,-27.29948 0,-12.7009 -0.29206,-14.5987 -4.5257,-22.62795 -5.69339,-10.94911 -18.24833,-23.0659 -29.1973,-28.1755 -6.56943,-2.9197 -11.38714,-3.94166 -21.46014,-4.37967 -15.32866,-0.7299 -25.5476,1.16803 -39.56247,7.73745 -32.70105,15.03658 -53.28515,45.10994 -53.28515,77.81092 0,14.30683 2.18969,23.94194 8.75917,37.51866 15.32872,31.67923 43.50401,50.51145 79.12495,52.84727 15.91255,1.0219 15.47453,1.75194 -6.56956,12.84677 -23.94174,11.82499 -37.81049,14.45289 -78.39486,14.45289 -27.73746,0 -32.70098,-0.43803 -43.06614,-3.21177 -38.24857,-10.51123 -65.25607,-35.3288 -71.67957,-66.13214 -3.50357,-17.08036 0,-28.61342 11.82493,-38.97842 13.28493,-11.67901 32.55512,-13.86876 44.81813,-5.25561 9.19704,6.4235 14.89052,18.24842 14.89052,31.24115 l 0.14599,10.07312 3.3578,-3.21169 c 10.07313,-9.34304 12.70083,-26.86157 6.27735,-41.46021 -4.08756,-9.19719 -15.03665,-19.85419 -24.52585,-23.94188 -22.62796,-9.78108 -55.32894,-1.89774 -73.72338,17.6644 -11.82499,12.70077 -17.08035,27.15352 -17.22637,47.44573 0,17.22644 4.81748,32.40911 14.59868,46.71572 l 4.67152,6.86143 -4.81751,-2.62768 C 103.78786,427.22334 77.802242,400.79957 65.247365,375.68986 57.218079,359.77736 54.590321,348.97433 54.736306,332.6239 c 0,-16.49661 2.043818,-24.088 8.759201,-33.72307 5.693489,-8.32115 13.430806,-11.82494 24.671783,-11.24098 8.9052,0.43796 9.19719,0.29192 6.86139,-2.33582 -7.59131,-8.32119 -24.671775,-10.80305 -36.350723,-5.1095 -9.63514,4.67163 -18.832315,15.91252 -22.336001,27.15359 -1.605854,5.2555 -2.919727,11.533 -3.065722,14.1606 -0.145975,10.65704 -2.043828,10.21918 -6.131448,-1.60576 -9.635131,-28.02955 -15.182641,-63.79624 -13.430783,-87.3001 1.897817,-26.71565 9.927091,-55.91304 18.978282,-70.07381 l 3.795666,-5.83946 -6.569424,7.1534 c -8.175257,8.61315 -18.540323,29.0513 -23.3578924,46.4239 -9.635133,33.72286 -8.613226,72.55545 2.773751,114.74562 C 25.976893,385.90904 67.437158,440.80006 121.7443,474.23106 195.32172,519.48705 288.16933,524.5965 365.54248,487.51582 458.68204,442.99 515.61691,349.41229 511.82133,247.22159 509.48547,187.07488 489.63116,135.97942 450.21477,89.117706 424.52102,58.460466 385.98053,31.306905 347.44007,16.562233 308.1696,1.6715675 260.13986,-3.5839561 217.51167,2.1095325 Z M 392.8419,122.98667 c 13.72278,6.42347 28.17547,23.06596 35.47485,40.58428 l 2.18975,5.54748 -6.71538,-4.81756 c -7.29931,-5.10943 -7.29931,-5.10943 -40.7303,-3.79568 -13.43085,0.58409 -15.18273,0.29214 -21.89801,-3.2115 -17.95652,-9.0513 -18.24835,-26.86168 -0.58394,-36.05887 8.46726,-4.5256 20.43809,-3.79566 32.26303,1.75185 z" />
</svg>
